<svg xmlns="http://www.w3.org/2000/svg" width="512" height="512" viewBox="0 0 512 512">
  <rect width="512" height="512" rx="120" fill="#07111f"/>
  <circle cx="256" cy="256" r="170" fill="#22d3ee" opacity="0.16"/>
  <path d="M150 258c0-70 46-118 109-118 39 0 72 18 91 48l-42 25c-10-18-27-29-49-29-36 0-62 29-62 74s26 74 62 74c23 0 40-11 50-30l42 24c-19 31-52 50-92 50-63 0-109-48-109-118z" fill="#67e8f9"/>
  <path d="M276 255h90l-35-35 31-31 88 88-88 88-31-31 35-35h-90v-44z" fill="#ffffff"/>
</svg>
